#!OML:ASF X:\für Bonn\!DataBase\2005_08_11_Bastian_Final\c3d\Bastian.ASF
:FULLY-SPECIFIED
:DEGREES
461
root -2.31554 1.16658 21.5295 -1004.49 -1.95488 -180.741
lowerback 14.4849 0.247009 2.12901
upperback 17.9375 -2.69266 1.1574
thorax 11.6353 -2.89498 -0.150512
lowerneck 3.87775 -1.99947 -10.2117
upperneck 12.6853 -4.20573 5.66516
head 3.46855 -2.735 3.29922
rclavicle 7.15625e-015 2.78299e-015
rhumerus -50.5166 59.1953 -91.0125
rradius 43.0489
rwrist -10.4945
rhand -17.6391 3.48123
rfingers 7.12502
rthumb 8.61863 -26.3229
lclavicle 7.15625e-015 2.78299e-015
lhumerus -43.0852 -38.4438 86.431
lradius 37.4728
lwrist 14.1832
lhand -19.7136 -8.64997
lfingers 7.12502
lthumb 6.61631 21.2267
rfemur 5.62756 6.07407 25.2833
rtibia 31.2274
rfoot -15.4959 -28.209
rtoes -1.58753
lfemur 6.06372 -2.49444 -17.2341
ltibia 25.5763
lfoot 10.2753 -0.923683
ltoes -9.42151
462
root -2.31889 1.16872 21.5297 -1004.45 -1.96177 -180.659
lowerback 14.3088 0.197522 2.05571
upperback 17.7027 -2.68039 1.18392
thorax 11.4387 -2.85149 -0.0681583
lowerneck 3.77687 -2.06829 -10.246
upperneck 12.5446 -4.2586 5.6568
head 3.44812 -2.74786 3.29972
rclavicle -3.97569e-015 -9.14409e-015
rhumerus -51.1806 59.6864 -91.8139
rradius 42.676
rwrist -10.5992
rhand -17.3325 3.41893
rfingers 7.12502
rthumb 8.9145 -26.3727
lclavicle -3.97569e-015 -9.14409e-015
lhumerus -43.4527 -39.7977 87.4345
lradius 37.3033
lwrist 14.9887
lhand -19.4223 -8.50171
lfingers 7.12502
lthumb 6.89749 21.3659
rfemur 5.62963 6.18224 25.2611
rtibia 31.2396
rfoot -15.9056 -28.717
rtoes -1.39188
lfemur 6.09034 -2.55445 -17.2864
ltibia 25.4537
lfoot 10.265 -1.08123
ltoes -9.66132
463
root -2.32199 1.17044 21.5296 -1004.41 -1.96081 -180.55
lowerback 14.1512 0.139393 1.98068
upperback 17.4569 -2.67834 1.20475
thorax 11.2195 -2.81257 0.010439
lowerneck 3.71937 -2.12747 -10.2068
upperneck 12.3751 -4.29912 5.61896
head 3.40883 -2.75287 3.28026
rclavicle -7.95139e-015 6.24184e-014
rhumerus -51.8616 60.1228 -92.66
rradius 42.2699
rwrist -10.661
rhand -17.0133 3.34595
rfingers 7.12502
rthumb 9.22248 -26.4324
lclavicle -7.95139e-015 6.24184e-014
lhumerus -43.8274 -41.0723 88.4104
lradius 37.079
lwrist 15.6884
lhand -19.1233 -8.32544
lfingers 7.12502
lthumb 7.18612 21.5325
rfemur 5.63652 6.28051 25.2476
rtibia 31.2465
rfoot -16.3401 -29.2585
rtoes -1.12022
lfemur 6.10563 -2.62721 -17.3304
ltibia 25.34
lfoot 10.2887 -1.20338
ltoes -9.47618
464
root -2.32579 1.17273 21.5288 -1004.4 -1.93794 -180.456
lowerback 13.9977 0.0824551 1.94192
upperback 17.2351 -2.68116 1.21971
thorax 11.0291 -2.7762 0.0602594
lowerneck 3.56233 -2.19823 -10.1225
upperneck 12.2523 -4.34199 5.55391
head 3.39854 -2.75673 3.24314
rclavicle 1.35174e-014 1.90833e-014
rhumerus -52.5097 60.5444 -93.5054
rradius 41.8711
rwrist -10.7028
rhand -16.7237 3.26347
rfingers 7.12502
rthumb 9.50194 -26.5023
lclavicle 1.35174e-014 1.90833e-014
lhumerus -44.1715 -42.3427 89.3627
lradius 36.8255
lwrist 16.3863
lhand -18.8603 -8.10682
lfingers 7.12502
lthumb 7.44001 21.7424
rfemur 5.64921 6.28617 25.2223
rtibia 31.2562
rfoot -16.7438 -29.6945
rtoes -0.973333
lfemur 6.14046 -2.69913 -17.3528
ltibia 25.227
lfoot 10.2995 -1.36258
ltoes -9.38692
465
root -2.32941 1.1743 21.5287 -1004.36 -1.93781 -180.348
lowerback 13.8489 0.0301779 1.86001
upperback 17.0022 -2.68008 1.2526
thorax 10.8257 -2.74345 0.153812
lowerneck 3.42779 -2.26561 -10.1184
upperneck 12.1015 -4.38594 5.53386
head 3.37874 -2.76238 3.23348
rclavicle 7.15625e-015 -3.73715e-014
rhumerus -53.1124 60.8967 -94.2902
rradius 41.4087
rwrist -10.707
rhand -16.4164 3.15791
rfingers 7.12502
rthumb 9.79842 -26.5941
lclavicle 7.15625e-015 -3.73715e-014
lhumerus -44.5284 -43.5565 90.3773
lradius 36.5593
lwrist 17.1058
lhand -18.6237 -7.87639
lfingers 7.12502
lthumb 7.66834 21.9646
rfemur 5.65037 6.35339 25.194
rtibia 31.2591
rfoot -17.1356 -30.1714
rtoes -0.934131
lfemur 6.14729 -2.80584 -17.41
ltibia 25.1265
lfoot 10.3171 -1.47711
ltoes -9.01694
466
root -2.33282 1.17672 21.5293 -1004.31 -1.94457 -180.263
lowerback 13.6778 -0.0157675 1.77178
upperback 16.7752 -2.67236 1.27657
thorax 10.6433 -2.70776 0.238905
lowerneck 3.27086 -2.33505 -10.0586
upperneck 11.9674 -4.42716 5.47073
head 3.36546 -2.76613 3.20104
rclavicle 2.22639e-014 1.35174e-014
rhumerus -53.7122 61.2346 -95.1031
rradius 40.8903
rwrist -10.779
rhand -16.2353 3.04352
rfingers 7.12502
rthumb 9.97311 -26.7002
lclavicle 2.22639e-014 1.35174e-014
lhumerus -44.9275 -44.7831 91.4226
lradius 36.2999
lwrist 17.917
lhand -18.4145 -7.57644
lfingers 7.12502
lthumb 7.8703 22.2571
rfemur 5.63029 6.41327 25.155
rtibia 31.2608
rfoot -17.4554 -30.6251
rtoes -0.970698
lfemur 6.13356 -2.84957 -17.4615
ltibia 25.033
lfoot 10.3485 -1.66226
ltoes -9.1926
467
root -2.33642 1.17846 21.5295 -1004.26 -1.94285 -180.148
lowerback 13.5398 -0.0710101 1.70598
upperback 16.5441 -2.67691 1.29688
thorax 10.4383 -2.67672 0.309292
lowerneck 3.08122 -2.40278 -10.0369
upperneck 11.8344 -4.46644 5.45484
head 3.35926 -2.7679 3.1889
rclavicle 2.70347e-014 -5.64548e-014
rhumerus -54.141 61.4512 -95.7955
rradius 40.2925
rwrist -10.7478
rhand -16.06 2.92627
rfingers 7.12502
rthumb 10.1423 -26.8093
lclavicle 2.70347e-014 -5.64548e-014
lhumerus -45.2932 -45.9485 92.4303
lradius 35.9889
lwrist 18.6652
lhand -18.181 -7.31653
lfingers 7.12502
lthumb 8.09563 22.5084
rfemur 5.61599 6.40715 25.1104
rtibia 31.2541
rfoot -17.7414 -30.9743
rtoes -0.988313
lfemur 6.1119 -3.01016 -17.5341
ltibia 24.9581
lfoot 10.3789 -1.69877
ltoes -8.87204
468
root -2.33985 1.18029 21.5298 -1004.24 -1.9473 -180.062
lowerback 13.4391 -0.11672 1.61021
upperback 16.3171 -2.67535 1.3277
thorax 10.2206 -2.64972 0.408043
lowerneck 2.92041 -2.46138 -9.99068
upperneck 11.6779 -4.4931 5.41072
head 3.33927 -2.76344 3.16502
rclavicle -4.77083e-015 2.94201e-014
rhumerus -54.7764 61.8017 -96.665
rradius 39.7337
rwrist -10.9218
rhand -15.9481 2.71707
rfingers 7.12502
rthumb 10.2503 -27.0132
lclavicle -4.77083e-015 2.94201e-014
lhumerus -45.7647 -47.1127 93.543
lradius 35.6896
lwrist 19.4426
lhand -18.015 -7.07556
lfingers 7.12502
lthumb 8.25581 22.7431
rfemur 5.62746 6.43953 25.0809
rtibia 31.2475
rfoot -18.0031 -31.3098
rtoes -1.02226
lfemur 6.1119 -3.0873 -17.5931
ltibia 24.8884
lfoot 10.4069 -1.82712
ltoes -8.92225
